<svg xmlns="http://www.w3.org/2000/svg" xmlns:xlink="http://www.w3.org/1999/xlink" width="377.126" height="75.6" viewBox="0 0 377.126 75.6">
  <defs>
    <style>
      .cls-1 {
        fill: url(#linear-gradient);
      }

      .cls-2 {
        fill: #fff;
        stroke: #fff;
        stroke-miterlimit: 10;
      }

      .cls-3 {
        fill: #283d4b;
      }

      .cls-4 {
        fill: #f4f4f4;
        opacity: 0.36;
      }

      .cls-5 {
        fill: url(#linear-gradient-2);
      }
    </style>
    <linearGradient id="linear-gradient" x1="0.046" y1="0.987" x2="0.954" y2="0.013" gradientUnits="objectBoundingBox">
      <stop offset="0" stop-color="#07c0e4"/>
      <stop offset="1" stop-color="#38bdb6"/>
    </linearGradient>
    <linearGradient id="linear-gradient-2" x1="0" y1="0.5" x2="1" y2="0.5" xlink:href="#linear-gradient"/>
  </defs>
  <g id="Group_4737" data-name="Group 4737" transform="translate(-227 -140.5)">
    <rect id="Rectangle_1957" data-name="Rectangle 1957" class="cls-1" width="75.6" height="75.6" rx="6" transform="translate(227 140.5)"/>
    <path id="Path_11717" data-name="Path 11717" class="cls-2" d="M825.771,590.534a15.026,15.026,0,0,0-1.373-6.312,16.563,16.563,0,0,0-15.157-9.6H789.1a2.148,2.148,0,0,0-1.539.638,2.179,2.179,0,0,0,1.539,3.721h20.141a12.046,12.046,0,0,1,11.013,6.99,10.881,10.881,0,0,1,.991,4.567v1.352a10.935,10.935,0,0,1-.639,3.706,16.817,16.817,0,0,0-11.365-4.38H789.1a2.186,2.186,0,0,0-.7.116,2.1,2.1,0,0,0-.835.523,2.179,2.179,0,0,0,1.539,3.721h20.141c.055,0,.116,0,.171.005a12.162,12.162,0,0,1,8.836,3.938,12.138,12.138,0,0,1-8.836,3.927c-.055.005-.116.005-.171.005H789.1a2.18,2.18,0,0,0-.779,4.214,2.1,2.1,0,0,0,.779.146h20.141a16.827,16.827,0,0,0,11.365-4.37,10.754,10.754,0,0,1,.639,3.691v1.353a11.8,11.8,0,0,1-12,11.561H789.1a2.18,2.18,0,0,0,0,4.36h20.141c9.112,0,16.529-7.141,16.529-15.921v-1.353a15.024,15.024,0,0,0-1.373-6.311c-.2-.443-.417-.875-.659-1.293a15.377,15.377,0,0,0,2.031-7.639Z" transform="translate(-541.547 -421.545)"/>
    <path id="Path_11707" data-name="Path 11707" class="cls-3" d="M938.981,602.613c0,6.569-3.973,11.284-13.668,11.284H913.291a2.866,2.866,0,0,1-2.866-2.866V579.678a2.866,2.866,0,0,1,2.866-2.866h10.644c8.953,0,13.509,3.921,13.509,10.225a7.776,7.776,0,0,1-3.973,7.258v.16A8.4,8.4,0,0,1,938.981,602.613ZM919.538,586.83v2.321a2.866,2.866,0,0,0,2.866,2.866h1.055c3.285,0,4.873-1.643,4.873-4.026,0-2.7-1.748-4.026-4.873-4.026H922.4A2.866,2.866,0,0,0,919.538,586.83Zm10.225,15.411c0-2.543-1.7-4.026-4.927-4.026H922.4a2.866,2.866,0,0,0-2.866,2.866v2.8a2.866,2.866,0,0,0,2.866,2.866h2.432C928.226,606.745,929.763,604.785,929.763,602.242Z" transform="translate(-595.395 -422.502)"/>
    <path id="Path_11708" data-name="Path 11708" class="cls-3" d="M982.338,594.647v7.543a.766.766,0,0,1-.85.759c-6.842-.721-7.626,3.462-7.626,7.792v9.83a.766.766,0,0,1-.766.766h-7.05a.766.766,0,0,1-.766-.766V595.243a.766.766,0,0,1,.766-.766h7.05a.766.766,0,0,1,.766.766v1.129a.764.764,0,0,0,1.313.531,10.315,10.315,0,0,1,6.331-3.023A.768.768,0,0,1,982.338,594.647Z" transform="translate(-619.312 -429.942)"/>
    <path id="Path_11709" data-name="Path 11709" class="cls-3" d="M1019.7,604.622v15.971a.716.716,0,0,1-.716.717h-7.15a.717.717,0,0,1-.716-.717h0a.718.718,0,0,0-1.175-.55,10.472,10.472,0,0,1-6.189,1.955c-3.6,0-9.165-1.377-9.165-7.894,0-8.9,11.549-8.9,13.35-8.9h3.179V605.1c0-2.543-1.271-4.344-4.4-4.344a8.542,8.542,0,0,0-4.705,1.416.707.707,0,0,1-.8,0l-4.478-3.042a.721.721,0,0,1-.084-1.122,16.137,16.137,0,0,1,11.442-4.188C1016.677,593.815,1019.7,598.212,1019.7,604.622Zm-8.582,4.874h-.689c-4.291,0-7.152.795-7.152,3.5,0,1.96,1.589,2.7,3.443,2.7a6,6,0,0,0,4.237-1.709.68.68,0,0,0,.161-.454Z" transform="translate(-632.09 -429.915)"/>
    <path id="Path_11710" data-name="Path 11710" class="cls-3" d="M1071.482,604.516v16.043a.751.751,0,0,1-.75.751H1063.6a.75.75,0,0,1-.75-.751V606.847c0-3.073-1.907-4.609-4.291-4.609-2.49,0-4.291,1.642-4.291,4.609v13.712a.75.75,0,0,1-.75.751h-7.082a.751.751,0,0,1-.75-.751V595.2a.75.75,0,0,1,.75-.75h7.082a.75.75,0,0,1,.75.75h0a.747.747,0,0,0,1.2.594,9.626,9.626,0,0,1,6.16-1.98C1068.3,593.815,1071.482,599.113,1071.482,604.516Z" transform="translate(-654.368 -429.915)"/>
    <path id="Path_11711" data-name="Path 11711" class="cls-3" d="M1124.213,577.579v35.552a.766.766,0,0,1-.766.766h-7.05a.766.766,0,0,1-.766-.766h0a.765.765,0,0,0-1.255-.586,9.68,9.68,0,0,1-6.321,2.041c-8.37,0-12.873-7.046-12.873-14.092s4.5-14.092,12.873-14.092a9.679,9.679,0,0,1,6.321,2.041.765.765,0,0,0,1.255-.587V577.579a.766.766,0,0,1,.766-.766h7.05A.767.767,0,0,1,1124.213,577.579Zm-8.847,22.915a5.5,5.5,0,0,0-5.774-5.775,5.748,5.748,0,0,0,0,11.5A5.491,5.491,0,0,0,1115.366,600.494Z" transform="translate(-675.951 -422.502)"/>
    <path id="Path_11712" data-name="Path 11712" class="cls-3" d="M1191.423,608.228v2.807a2.861,2.861,0,0,1-2.861,2.861h-17.588a2.861,2.861,0,0,1-2.861-2.861V579.673a2.861,2.861,0,0,1,2.861-2.861h17.111a2.861,2.861,0,0,1,2.861,2.861v2.861a2.861,2.861,0,0,1-2.861,2.861h-8.053a2.861,2.861,0,0,0-2.861,2.861h0a2.861,2.861,0,0,0,2.861,2.861h6.357a2.861,2.861,0,0,1,2.861,2.861v2.383a2.861,2.861,0,0,1-2.861,2.861h-6.357a2.861,2.861,0,0,0-2.861,2.861v.424a2.861,2.861,0,0,0,2.861,2.861h8.529A2.861,2.861,0,0,1,1191.423,608.228Z" transform="translate(-707.75 -422.502)"/>
    <path id="Path_11713" data-name="Path 11713" class="cls-3" d="M1239.882,595.233v35.518a.783.783,0,0,1-.783.783h-7.016a.783.783,0,0,1-.783-.783V620.58a.783.783,0,0,0-1.283-.6,9.767,9.767,0,0,1-6.345,2.019c-8.318,0-12.821-7.046-12.821-14.092s4.5-14.092,12.821-14.092a9.771,9.771,0,0,1,6.345,2.018.783.783,0,0,0,1.283-.6h0a.783.783,0,0,1,.783-.783h7.016A.782.782,0,0,1,1239.882,595.233Zm-8.9,12.673a5.748,5.748,0,1,0-5.722,5.721A5.463,5.463,0,0,0,1230.982,607.907Z" transform="translate(-726.383 -429.915)"/>
    <path id="Path_11714" data-name="Path 11714" class="cls-3" d="M1294.7,595.667v25.409a.725.725,0,0,1-.725.725h-7.185a.725.725,0,0,1-.725-.725h0a.724.724,0,0,0-1.184-.559,9.509,9.509,0,0,1-6.127,1.973c-6.728,0-9.854-5.3-9.854-10.7V595.667a.725.725,0,0,1,.725-.725h7.132a.725.725,0,0,1,.725.725v13.79c0,3.073,1.96,4.609,4.291,4.609,2.542,0,4.291-1.642,4.291-4.609v-13.79a.725.725,0,0,1,.725-.725h7.185A.725.725,0,0,1,1294.7,595.667Z" transform="translate(-751.693 -430.407)"/>
    <path id="Path_11715" data-name="Path 11715" class="cls-3" d="M1353.69,597.7a1.584,1.584,0,0,0-1.584,1.584v6.893c0,2.808,1.006,4.238,3.655,4.238h.021A1.6,1.6,0,0,1,1357.4,612v4.224a1.585,1.585,0,0,1-1.346,1.567,15.713,15.713,0,0,1-2.362.149c-8.265,0-10.172-5.616-10.172-10.86v-7.793a1.584,1.584,0,0,0-1.584-1.584h-.17a1.584,1.584,0,0,1-1.584-1.584v-3.932a1.583,1.583,0,0,1,1.584-1.583h.17a1.584,1.584,0,0,0,1.584-1.584v-2.448a1.584,1.584,0,0,1,1.584-1.584h5.415a1.584,1.584,0,0,1,1.584,1.584v2.448a1.584,1.584,0,0,0,1.584,1.584h2.13a1.583,1.583,0,0,1,1.584,1.583v3.932a1.584,1.584,0,0,1-1.584,1.584Z" transform="translate(-782.774 -426.065)"/>
    <path id="Path_11716" data-name="Path 11716" class="cls-3" d="M1402.071,598.19l-12.843,32.339a2.373,2.373,0,0,1-2.205,1.5h-3.571a2.373,2.373,0,0,1-2.19-3.286l3.174-7.61a2.374,2.374,0,0,0,0-1.835l-8.875-21.06a2.373,2.373,0,0,1,2.187-3.294h3.859a2.373,2.373,0,0,1,2.237,1.583l2.629,7.45a2.373,2.373,0,0,0,4.47.014l2.691-7.477a2.372,2.372,0,0,1,2.232-1.569h4A2.373,2.373,0,0,1,1402.071,598.19Z" transform="translate(-798.115 -430.407)"/>
    <rect id="Rectangle_1956" data-name="Rectangle 1956" class="cls-3" width="8.582" height="26.86" rx="2.124" transform="translate(546.712 164.535)"/>
    <g id="Group_3381" data-name="Group 3381" transform="translate(544.712 151.345)">
      <g id="Group_3481" data-name="Group 3481" transform="translate(0)">
        <path id="Path_11720" data-name="Path 11720" class="cls-3" d="M5.249,0A5.249,5.249,0,1,1,0,5.249,5.249,5.249,0,0,1,5.249,0Z" transform="translate(0 10.231) rotate(-77.057)"/>
        <path id="Path_11718" data-name="Path 11718" class="cls-4" d="M1329.552,575.755c-.031,1.063-1.494,1.884-3.267,1.832s-3.187-.955-3.156-2.019,1.494-1.884,3.267-1.832S1329.583,574.691,1329.552,575.755Z" transform="translate(-1320.049 -572.505)"/>
        <path id="Path_11719" data-name="Path 11719" class="cls-5" d="M1329.1,583.7a7.243,7.243,0,0,1-.51,1.646c-.19-.209-.19-.209-.359-.4-2.429,2.53-3.734,2.457-4.47,2.193a6.062,6.062,0,0,1-1.043-.532,5.946,5.946,0,0,1-.855-.773l-.2-.237c1.464,1.256,3.234.647,5.138-1.576-.473-.2-.534-.227-.871-.392a8.421,8.421,0,0,0,1.8-.814,8.511,8.511,0,0,0,1.5-1.149,8.554,8.554,0,0,1-.125,2.036Z" transform="translate(-1319.412 -575.962)"/>
      </g>
    </g>
  </g>
</svg>
